<?xml version="1.0" standalone="no"?>
<!DOCTYPE svg PUBLIC "-//W3C//DTD SVG 20010904//EN"
 "http://www.w3.org/TR/2001/REC-SVG-20010904/DTD/svg10.dtd">
<svg version="1.0" xmlns="http://www.w3.org/2000/svg"
 width="207.000000pt" height="207.000000pt" viewBox="0 0 207.000000 207.000000"
 preserveAspectRatio="xMidYMid meet">
<metadata>
Created by potrace 1.11, written by Peter Selinger 2001-2013
</metadata>
<g transform="translate(0.000000,207.000000) scale(0.100000,-0.100000)"
fill="#000000" stroke="none">
<path d="M960 1504 c-8 -19 -8 -37 0 -57 12 -36 13 -47 3 -46 -21 3 -33 -2
-33 -16 0 -15 14 -19 62 -16 26 1 27 -1 17 -25 -5 -15 -21 -41 -35 -57 -20
-24 -25 -38 -21 -63 3 -18 3 -35 0 -37 -8 -9 -55 12 -69 31 -8 9 -14 14 -14
10 0 -4 -13 -3 -29 2 -36 10 -66 -8 -76 -47 -3 -15 -11 -31 -17 -34 -20 -12
-35 -74 -25 -100 8 -22 10 -36 15 -104 2 -31 35 -65 59 -60 10 2 21 4 25 4 4
1 25 25 48 55 22 31 47 55 57 54 10 0 48 1 84 2 l67 3 70 -57 c39 -31 82 -59
96 -62 36 -6 68 30 62 71 -5 27 -37 129 -53 165 -3 8 -7 17 -7 20 -1 3 -8 16
-16 30 -9 14 -20 34 -26 45 -15 28 -79 30 -106 3 -11 -11 -32 -22 -46 -24 -15
-3 -32 -6 -38 -9 -18 -6 -54 24 -54 44 0 10 13 36 29 58 16 22 32 54 36 72 5
24 11 31 24 26 25 -7 71 31 53 43 -7 5 -23 7 -35 5 -18 -4 -23 1 -24 17 -2 24
-27 56 -55 71 -15 8 -20 5 -28 -17z"/>
<path d="M39 918 c-1 -2 -3 -69 -4 -150 -2 -104 1 -148 9 -149 61 -5 176 -3
194 5 25 11 24 7 27 108 4 105 -2 112 -102 114 -43 1 -81 2 -85 3 -5 1 -8 17
-8 36 0 24 -5 35 -15 35 -8 0 -16 -1 -16 -2z m191 -188 c0 -38 -3 -71 -7 -71
-5 -1 -38 -2 -75 -3 l-68 -1 0 72 0 73 75 0 75 0 0 -70z"/>
<path d="M1357 905 c-7 -21 -2 -285 6 -285 4 0 13 0 20 0 10 0 13 21 11 83 0
45 1 87 3 93 5 15 140 16 149 2 4 -6 6 -47 6 -92 0 -89 2 -98 22 -90 20 8 19
199 -2 216 -8 7 -47 13 -91 14 -42 1 -79 2 -82 3 -3 1 -5 16 -4 35 1 28 -2 34
-17 33 -9 -1 -19 -6 -21 -12z"/>
<path d="M1880 785 c0 -149 5 -162 65 -168 47 -5 69 2 73 24 2 13 -6 16 -39
14 -63 -3 -66 4 -60 138 1 14 8 18 29 17 57 -4 70 0 68 18 -2 13 -13 17 -44
17 -49 1 -53 4 -54 43 -1 23 -5 30 -20 29 -16 -1 -18 -12 -18 -132z"/>
<path d="M290 746 c0 -130 2 -132 121 -129 110 2 114 7 113 133 -1 84 -3 94
-20 96 -18 3 -19 -3 -19 -84 1 -48 -2 -92 -6 -98 -9 -11 -127 -13 -144 -2 -6
4 -10 42 -9 90 2 78 -4 97 -28 98 -5 0 -8 -47 -8 -104z"/>
<path d="M559 833 c0 -7 -1 -42 -1 -78 0 -132 1 -142 17 -142 18 0 17 -4 21
87 1 41 3 83 3 92 1 24 150 24 152 -1 1 -9 2 -50 3 -91 0 -41 4 -76 9 -78 27
-12 33 23 28 168 -2 49 -12 53 -125 55 -82 1 -106 -1 -107 -12z"/>
<path d="M826 841 c-2 -5 0 -209 3 -221 0 -3 9 -6 19 -6 16 0 18 10 17 86 -1
47 0 90 2 96 3 8 30 12 74 11 84 -1 86 -3 84 -109 -2 -56 2 -78 11 -82 20 -8
21 0 21 101 1 126 0 127 -126 129 -56 0 -103 -2 -105 -5z"/>
<path d="M1089 827 c-1 -12 -1 -58 0 -101 1 -103 6 -109 110 -110 78 0 81 -1
81 -23 0 -25 1 -25 -87 -25 -54 0 -63 -2 -63 -18 0 -13 10 -19 36 -22 45 -5
131 5 144 18 5 5 9 56 10 114 3 181 2 189 -17 186 -15 -3 -18 -15 -19 -82 -1
-43 -2 -86 -3 -94 -1 -12 -15 -15 -70 -15 -38 0 -73 4 -77 8 -5 4 -8 47 -9 94
0 74 -2 86 -17 89 -12 1 -18 -5 -19 -19z"/>
<path d="M1612 826 c0 -20 6 -21 77 -19 102 3 123 -2 119 -30 -3 -20 -9 -22
-88 -25 -47 -1 -91 -5 -97 -7 -15 -5 -10 -102 5 -117 5 -5 56 -10 113 -11
l104 -2 2 97 c2 132 2 132 -130 133 -99 1 -105 0 -105 -19z m198 -141 c0 -29
5 -27 -82 -29 -68 -1 -68 -1 -68 26 l0 28 75 0 c73 0 75 -1 75 -25z"/>
</g>
</svg>
